<svg width="4391" height="1122" viewBox="0 0 4391 1122" fill="none" xmlns="http://www.w3.org/2000/svg">
<path d="M356.3 989.35V1038H138.25C121.217 1038 105.117 1034.97 89.95 1028.9C74.7833 1022.6 61.6 1013.97 50.4 1003C39.2 992.033 30.3333 979.2 23.8 964.5C17.2667 949.567 14 933.583 14 916.55C14 899.283 17.2667 883.3 23.8 868.6C30.3333 853.9 39.2 841.067 50.4 830.1C61.6 819.133 74.7833 810.617 89.95 804.55C105.117 798.25 121.217 795.1 138.25 795.1H356.3V843.75H138.25C128.917 843.75 120.167 845.617 112 849.35C103.833 852.85 96.7167 857.867 90.65 864.4C84.5833 870.933 79.8 878.633 76.3 887.5C72.8 896.367 71.05 906.05 71.05 916.55C71.05 927.05 72.8 936.733 76.3 945.6C79.8 954.467 84.5833 962.167 90.65 968.7C96.7167 975.233 103.833 980.367 112 984.1C120.167 987.6 128.917 989.35 138.25 989.35H356.3ZM651.566 793.7C668.833 793.7 685.049 796.85 700.216 803.15C715.383 809.217 728.566 817.733 739.766 828.7C750.966 839.433 759.833 852.267 766.366 867.2C772.899 881.9 776.166 897.883 776.166 915.15C776.166 932.183 772.899 948.167 766.366 963.1C759.833 977.8 750.966 990.633 739.766 1001.6C728.566 1012.57 715.383 1021.2 700.216 1027.5C685.049 1033.57 668.833 1036.6 651.566 1036.6H529.766C512.499 1036.6 496.283 1033.57 481.116 1027.5C465.949 1021.2 452.766 1012.57 441.566 1001.6C430.366 990.633 421.499 977.8 414.966 963.1C408.433 948.167 405.166 932.183 405.166 915.15C405.166 897.883 408.433 881.9 414.966 867.2C421.499 852.267 430.366 839.433 441.566 828.7C452.766 817.733 465.949 809.217 481.116 803.15C496.283 796.85 512.499 793.7 529.766 793.7H651.566ZM651.566 987.95C660.899 987.95 669.649 986.083 677.816 982.35C685.983 978.617 693.099 973.6 699.166 967.3C705.233 960.767 710.016 953.067 713.516 944.2C717.016 935.333 718.766 925.65 718.766 915.15C718.766 904.65 717.016 894.967 713.516 886.1C710.016 877 705.233 869.3 699.166 863C693.099 856.467 685.983 851.333 677.816 847.6C669.649 843.867 660.899 842 651.566 842H529.766C520.433 842 511.683 843.867 503.516 847.6C495.349 851.333 488.233 856.467 482.166 863C476.099 869.3 471.316 877 467.816 886.1C464.316 894.967 462.566 904.65 462.566 915.15C462.566 925.65 464.316 935.333 467.816 944.2C471.316 953.067 476.099 960.767 482.166 967.3C488.233 973.6 495.349 978.617 503.516 982.35C511.683 986.083 520.433 987.95 529.766 987.95H651.566ZM1212.49 794.75V1038H1158.24V843.05H1123.24C1116.71 843.05 1110.88 845.033 1105.74 849C1100.84 852.967 1097.46 857.983 1095.59 864.05L1045.89 1038H991.643L941.943 864.05C940.076 857.983 936.576 852.967 931.443 849C926.543 845.033 920.826 843.05 914.293 843.05H879.293V1038H825.043V795.1H935.643C947.076 796.267 957.226 800.7 966.093 808.4C975.193 815.867 981.376 825.2 984.643 836.4L1018.59 956.1L1052.89 836.4C1056.16 825.2 1062.23 815.867 1071.09 808.4C1079.96 800.7 1090.23 796.267 1101.89 795.1V794.4L1212.49 794.75ZM1495.83 795.1C1517.76 795.1 1536.08 799.65 1550.78 808.75C1565.48 817.85 1576.44 829.283 1583.68 843.05C1591.14 856.583 1594.88 871.4 1594.88 887.5C1595.11 903.367 1591.49 918.183 1584.03 931.95C1576.79 945.483 1565.83 956.8 1551.13 965.9C1536.43 975 1517.99 979.55 1495.83 979.55H1315.58V1038H1261.33V985.15C1261.33 977.683 1262.73 970.683 1265.53 964.15C1268.56 957.383 1272.53 951.55 1277.43 946.65C1282.33 941.75 1288.04 937.9 1294.58 935.1C1301.11 932.3 1308.11 930.9 1315.58 930.9H1495.83C1505.39 930.9 1513.33 928.8 1519.63 924.6C1525.93 920.167 1530.59 914.8 1533.63 908.5C1536.89 901.967 1538.53 894.967 1538.53 887.5C1538.53 879.8 1536.89 872.8 1533.63 866.5C1530.36 859.967 1525.58 854.6 1519.28 850.4C1512.98 845.967 1505.16 843.75 1495.83 843.75H1266.23V795.1H1495.83ZM1784.58 795.1C1796.25 795.1 1806.87 798.25 1816.43 804.55C1826 810.617 1833.12 818.9 1837.78 829.4L1930.53 1038H1877.33L1855.98 989.35H1663.13L1641.43 1038H1588.23L1616.23 975.35C1620.9 964.85 1628.02 956.567 1637.58 950.5C1647.15 944.2 1657.65 941.05 1669.08 941.05H1834.28L1794.73 852.15C1793.57 849.583 1791.7 847.6 1789.13 846.2C1786.8 844.567 1784.23 843.75 1781.43 843.75H1737.33C1734.53 843.75 1731.97 844.567 1729.63 846.2C1727.3 847.6 1725.55 849.583 1724.38 852.15L1700.58 905.35H1647.38L1681.33 829.4C1686 818.9 1693.12 810.617 1702.68 804.55C1712.25 798.25 1722.75 795.1 1734.18 795.1H1784.58ZM2216.34 882.25C2235.48 882.25 2251.46 886.1 2264.29 893.8C2277.13 901.5 2286.69 911.067 2292.99 922.5C2299.53 933.933 2302.79 946.417 2302.79 959.95C2302.79 973.483 2299.53 985.967 2292.99 997.4C2286.69 1008.83 2277.13 1018.4 2264.29 1026.1C2251.46 1033.8 2235.48 1037.65 2216.34 1037.65H1975.54V989H2216.34C2226.38 989 2233.84 985.967 2238.74 979.9C2243.64 973.833 2245.98 967.183 2245.74 959.95C2245.74 952.483 2243.29 945.717 2238.39 939.65C2233.49 933.583 2226.14 930.55 2216.34 930.55H2043.09C2025.83 930.55 2011.36 927.283 1999.69 920.75C1988.26 913.983 1979.63 905.583 1973.79 895.55C1968.19 885.283 1965.39 874.317 1965.39 862.65C1965.39 850.983 1968.31 840.133 1974.14 830.1C1979.98 819.833 1988.61 811.433 2000.04 804.9C2011.48 798.133 2025.83 794.75 2043.09 794.75H2277.94V843.05H2043.09C2036.33 843.05 2031.19 845.15 2027.69 849.35C2024.19 853.317 2022.33 857.75 2022.09 862.65C2022.09 867.55 2023.84 872.1 2027.34 876.3C2030.84 880.267 2036.09 882.25 2043.09 882.25H2216.34ZM2603.07 882.25C2622.2 882.25 2638.18 886.1 2651.02 893.8C2663.85 901.5 2673.42 911.067 2679.72 922.5C2686.25 933.933 2689.52 946.417 2689.52 959.95C2689.52 973.483 2686.25 985.967 2679.72 997.4C2673.42 1008.83 2663.85 1018.4 2651.02 1026.1C2638.18 1033.8 2622.2 1037.65 2603.07 1037.65H2362.27V989H2603.07C2613.1 989 2620.57 985.967 2625.47 979.9C2630.37 973.833 2632.7 967.183 2632.47 959.95C2632.47 952.483 2630.02 945.717 2625.12 939.65C2620.22 933.583 2612.87 930.55 2603.07 930.55H2429.82C2412.55 930.55 2398.08 927.283 2386.42 920.75C2374.98 913.983 2366.35 905.583 2360.52 895.55C2354.92 885.283 2352.12 874.317 2352.12 862.65C2352.12 850.983 2355.03 840.133 2360.87 830.1C2366.7 819.833 2375.33 811.433 2386.77 804.9C2398.2 798.133 2412.55 794.75 2429.82 794.75H2664.67V843.05H2429.82C2423.05 843.05 2417.92 845.15 2414.42 849.35C2410.92 853.317 2409.05 857.75 2408.82 862.65C2408.82 867.55 2410.57 872.1 2414.07 876.3C2417.57 880.267 2422.82 882.25 2429.82 882.25H2603.07Z" fill="#FF7373"/>
<path d="M4361.34 0H4205.55C4169.04 0 4139.84 26.7166 4139.84 26.7166L3387.67 728.686H3543.46C3582.4 728.686 3609.18 701.969 3609.18 701.969L3708.98 612.097L3942.66 845.274C3942.66 845.274 3971.87 874.423 4013.26 874.423H4166.61L3808.78 517.366L4361.34 0Z" fill="black"/>
<path d="M3694.37 354.625L3611.61 272.043C3611.61 272.043 3582.4 242.895 3541.02 242.895H3387.67L3592.14 446.929L3694.37 354.625Z" fill="black"/>
<path d="M3319.61 629.578V726.022H2888.04C2853.81 726.022 2821.66 720.009 2791.6 707.982C2761.53 695.493 2735.4 678.378 2713.19 656.638C2690.99 634.898 2673.41 609.457 2660.46 580.316C2647.51 550.712 2641.03 519.027 2641.03 485.26C2641.03 451.03 2647.51 419.345 2660.46 390.204C2673.41 361.063 2690.99 335.622 2713.19 313.881C2735.4 292.141 2761.53 275.258 2791.6 263.231C2821.66 250.742 2853.81 244.498 2888.04 244.498H3319.61V340.941H2888.04C2872.31 340.941 2857.28 343.717 2842.94 349.267C2828.6 354.355 2815.65 361.756 2804.09 371.47C2792.98 381.184 2783.27 392.979 2774.94 406.856C2767.08 420.27 2761.53 435.072 2758.29 451.262H3130.88V547.705H2767.31C2777.95 572.683 2793.91 592.573 2815.19 607.375C2836.93 622.177 2861.21 629.578 2888.04 629.578H3319.61Z" fill="black"/>
<path d="M2436.12 243.804H2543.67V726.022H2436.12V615.701L2126.67 365.226C2105.39 348.111 2081.34 339.554 2054.51 339.554H2022.59V726.022H1915.05V243.804H2089.2C2116.03 243.804 2140.08 252.361 2161.36 269.476L2436.12 492.198V243.804Z" fill="black"/>
<path d="M1817.09 245V341.444H1729.66V630.081H1817.09V726.524H1534V630.081H1622.12V341.444H1534V245H1817.09Z" fill="black"/>
<path d="M1221.57 244.498C1260.89 244.498 1294.19 251.898 1321.48 266.7C1349.24 281.502 1370.98 300.467 1386.7 323.595C1402.89 346.261 1412.84 371.701 1416.54 399.917C1420.7 427.671 1418.85 454.731 1410.99 481.097C1403.12 507.463 1389.25 531.516 1369.36 553.256C1349.93 574.534 1324.49 590.029 1293.03 599.743L1437.35 726.022H1273.61L1165.37 630.966C1149.64 616.627 1130.91 609.457 1109.17 609.457H884.363V726.716H776.124V244.498H1221.57ZM1221.57 513.707C1240.53 513.707 1256.26 509.544 1268.75 501.218C1281.7 492.429 1291.18 481.559 1297.2 468.608C1303.67 455.656 1306.68 441.779 1306.22 426.977C1306.22 412.175 1302.98 398.299 1296.5 385.347C1290.49 372.395 1281.01 361.756 1268.06 353.43C1255.57 344.642 1240.07 340.247 1221.57 340.247H884.363V513.707H1221.57Z" fill="black"/>
<path d="M607.803 441.548C627.693 453.574 643.42 469.07 654.984 488.035C666.548 507 673.949 527.121 677.187 548.399C680.425 569.214 679.268 590.261 673.718 611.538C668.63 632.816 659.147 652.012 645.27 669.127C631.856 685.779 613.816 699.425 591.151 710.064C568.948 720.702 542.582 726.022 512.053 726.022H0V524.809C0 510.007 2.77536 496.13 8.32607 483.178C14.3393 469.764 22.2028 458.2 31.9166 448.486C41.6303 438.772 52.963 431.14 65.9147 425.59C78.8664 420.039 92.7431 417.263 107.545 417.263H478.055C489.157 417.263 497.251 413.332 502.34 405.468C507.89 397.142 510.666 388.122 510.666 378.408C510.666 368.695 507.89 359.906 502.34 352.043C496.789 343.717 488.694 339.553 478.055 339.553H11.7953V244.498H478.055C509.972 244.498 536.569 250.973 557.847 263.925C579.587 276.877 595.776 293.298 606.415 313.188C617.054 332.615 622.605 353.893 623.067 377.021C623.53 400.149 618.442 421.658 607.803 441.548ZM512.053 628.884C530.556 628.884 544.201 622.871 552.99 610.845C562.241 598.818 566.635 585.635 566.173 571.296C566.173 556.494 561.547 543.08 552.296 531.053C543.507 519.027 530.093 513.013 512.053 513.013H107.545V628.884H512.053Z" fill="black"/>
<path d="M4261.67 414.333L4231.6 504.517C4229.96 509.427 4227.21 513.888 4223.55 517.547C4219.89 521.207 4215.43 523.964 4210.52 525.6L4120.33 555.667L4150.4 465.483C4152.04 460.574 4154.79 456.113 4158.45 452.453C4162.11 448.794 4166.57 446.037 4171.48 444.4L4261.67 414.333Z" stroke="#FF7373" stroke-width="30" stroke-linecap="round" stroke-linejoin="round"/>
<path d="M4191 651.667C4283.05 651.667 4357.67 577.048 4357.67 485C4357.67 392.953 4283.05 318.333 4191 318.333C4098.95 318.333 4024.33 392.953 4024.33 485C4024.33 577.048 4098.95 651.667 4191 651.667Z" stroke="#FF7373" stroke-width="30" stroke-linecap="round" stroke-linejoin="round"/>
</svg>
