<svg width="4410" height="1122" viewBox="0 0 4410 1122" fill="none" xmlns="http://www.w3.org/2000/svg">
<path d="M356.3 989.35V1038H138.25C121.217 1038 105.117 1034.97 89.95 1028.9C74.7833 1022.6 61.6 1013.97 50.4 1003C39.2 992.033 30.3333 979.2 23.8 964.5C17.2667 949.567 14 933.583 14 916.55C14 899.283 17.2667 883.3 23.8 868.6C30.3333 853.9 39.2 841.067 50.4 830.1C61.6 819.133 74.7833 810.617 89.95 804.55C105.117 798.25 121.217 795.1 138.25 795.1H356.3V843.75H138.25C128.917 843.75 120.167 845.617 112 849.35C103.833 852.85 96.7167 857.867 90.65 864.4C84.5833 870.933 79.8 878.633 76.3 887.5C72.8 896.367 71.05 906.05 71.05 916.55C71.05 927.05 72.8 936.733 76.3 945.6C79.8 954.467 84.5833 962.167 90.65 968.7C96.7167 975.233 103.833 980.367 112 984.1C120.167 987.6 128.917 989.35 138.25 989.35H356.3ZM639.666 794.75C659.966 794.75 677.116 798.717 691.116 806.65C705.349 814.35 716.316 824.267 724.016 836.4C731.949 848.3 736.733 861.483 738.366 875.95C739.999 890.417 738.483 904.417 733.816 917.95C729.149 931.25 721.333 943.267 710.366 954C699.399 964.5 685.399 971.733 668.366 975.7L738.716 1037.65H656.116L601.516 989.7C593.583 982.467 584.133 978.85 573.166 978.85H459.416V1038H405.166V984.8C405.166 977.1 406.566 969.983 409.366 963.45C412.166 956.917 416.016 951.2 420.916 946.3C425.816 941.4 431.533 937.55 438.066 934.75C444.833 931.95 451.949 930.55 459.416 930.55H639.666C649.233 930.55 657.166 928.45 663.466 924.25C669.766 919.817 674.433 914.333 677.466 907.8C680.733 901.267 682.366 894.267 682.366 886.8C682.366 879.333 680.733 872.333 677.466 865.8C674.199 859.267 669.416 853.9 663.116 849.7C656.816 845.267 648.999 843.05 639.666 843.05H410.066V794.75H639.666ZM1067.05 795.1H1120.25L1068.45 911.3C1063.78 921.8 1056.67 930.2 1047.1 936.5C1037.53 942.567 1027.03 945.6 1015.6 945.6H967.302V1038H913.052V945.6H865.102C853.435 945.6 842.818 942.567 833.252 936.5C823.685 930.2 816.568 921.8 811.902 911.3L760.102 795.1H813.302L854.952 888.55C856.118 891.117 857.868 893.217 860.202 894.85C862.768 896.483 865.452 897.3 868.252 897.3H1012.45C1015.25 897.3 1017.82 896.483 1020.15 894.85C1022.48 893.217 1024.23 891.117 1025.4 888.55L1067.05 795.1ZM1396.07 882.25C1415.21 882.25 1431.19 886.1 1444.02 893.8C1456.86 901.5 1466.42 911.067 1472.72 922.5C1479.26 933.933 1482.52 946.417 1482.52 959.95C1482.52 973.483 1479.26 985.967 1472.72 997.4C1466.42 1008.83 1456.86 1018.4 1444.02 1026.1C1431.19 1033.8 1415.21 1037.65 1396.07 1037.65H1155.27V989H1396.07C1406.11 989 1413.57 985.967 1418.47 979.9C1423.37 973.833 1425.71 967.183 1425.47 959.95C1425.47 952.483 1423.02 945.717 1418.12 939.65C1413.22 933.583 1405.87 930.55 1396.07 930.55H1222.82C1205.56 930.55 1191.09 927.283 1179.42 920.75C1167.99 913.983 1159.36 905.583 1153.52 895.55C1147.92 885.283 1145.12 874.317 1145.12 862.65C1145.12 850.983 1148.04 840.133 1153.87 830.1C1159.71 819.833 1168.34 811.433 1179.77 804.9C1191.21 798.133 1205.56 794.75 1222.82 794.75H1457.67V843.05H1222.82C1216.06 843.05 1210.92 845.15 1207.42 849.35C1203.92 853.317 1202.06 857.75 1201.82 862.65C1201.82 867.55 1203.57 872.1 1207.07 876.3C1210.57 880.267 1215.82 882.25 1222.82 882.25H1396.07ZM1851.16 794.75V843.05H1708.71V1038H1654.46V843.05H1512.01V794.75H1851.16ZM2023.99 795.1C2035.66 795.1 2046.28 798.25 2055.84 804.55C2065.41 810.617 2072.53 818.9 2077.19 829.4L2169.94 1038H2116.74L2095.39 989.35H1902.54L1880.84 1038H1827.64L1855.64 975.35C1860.31 964.85 1867.43 956.567 1876.99 950.5C1886.56 944.2 1897.06 941.05 1908.49 941.05H2073.69L2034.14 852.15C2032.98 849.583 2031.11 847.6 2028.54 846.2C2026.21 844.567 2023.64 843.75 2020.84 843.75H1976.74C1973.94 843.75 1971.38 844.567 1969.04 846.2C1966.71 847.6 1964.96 849.583 1963.79 852.15L1939.99 905.35H1886.79L1920.74 829.4C1925.41 818.9 1932.53 810.617 1942.09 804.55C1951.66 798.25 1962.16 795.1 1973.59 795.1H2023.99ZM2281.61 1038C2271.81 1038 2262.01 1036.25 2252.21 1032.75C2242.41 1029.25 2233.43 1024.12 2225.26 1017.35C2217.33 1010.35 2210.79 1001.6 2205.66 991.1C2200.53 980.6 2197.96 968.35 2197.96 954.35V795.1H2252.56V953.65C2252.56 958.317 2253.38 962.867 2255.01 967.3C2256.64 971.5 2258.74 975.233 2261.31 978.5C2264.11 981.767 2267.26 984.45 2270.76 986.55C2274.26 988.417 2277.88 989.35 2281.61 989.35H2430.36V1038H2281.61Z" fill="#FFB622"/>
<path d="M4361.34 0H4205.55C4169.04 0 4139.84 26.7166 4139.84 26.7166L3387.67 728.686H3543.46C3582.4 728.686 3609.18 701.969 3609.18 701.969L3708.98 612.097L3942.66 845.274C3942.66 845.274 3971.87 874.423 4013.26 874.423H4166.61L3808.78 517.366L4361.34 0Z" fill="black"/>
<path d="M3694.37 354.625L3611.61 272.043C3611.61 272.043 3582.4 242.895 3541.02 242.895H3387.67L3592.14 446.929L3694.37 354.625Z" fill="black"/>
<path d="M3319.61 629.578V726.022H2888.04C2853.81 726.022 2821.66 720.009 2791.6 707.982C2761.53 695.493 2735.4 678.378 2713.19 656.638C2690.99 634.898 2673.41 609.457 2660.46 580.316C2647.51 550.712 2641.03 519.027 2641.03 485.26C2641.03 451.03 2647.51 419.345 2660.46 390.204C2673.41 361.063 2690.99 335.622 2713.19 313.881C2735.4 292.141 2761.53 275.258 2791.6 263.231C2821.66 250.742 2853.81 244.498 2888.04 244.498H3319.61V340.941H2888.04C2872.31 340.941 2857.28 343.717 2842.94 349.267C2828.6 354.355 2815.65 361.756 2804.09 371.47C2792.98 381.184 2783.27 392.979 2774.94 406.856C2767.08 420.27 2761.53 435.072 2758.29 451.262H3130.88V547.705H2767.31C2777.95 572.683 2793.91 592.573 2815.19 607.375C2836.93 622.177 2861.21 629.578 2888.04 629.578H3319.61Z" fill="black"/>
<path d="M2436.12 243.804H2543.67V726.022H2436.12V615.701L2126.67 365.226C2105.39 348.111 2081.34 339.554 2054.51 339.554H2022.59V726.022H1915.05V243.804H2089.2C2116.03 243.804 2140.08 252.361 2161.36 269.476L2436.12 492.198V243.804Z" fill="black"/>
<path d="M1817.09 245V341.444H1729.66V630.081H1817.09V726.524H1534V630.081H1622.12V341.444H1534V245H1817.09Z" fill="black"/>
<path d="M1221.57 244.498C1260.89 244.498 1294.19 251.898 1321.48 266.7C1349.24 281.502 1370.98 300.467 1386.7 323.595C1402.89 346.261 1412.84 371.701 1416.54 399.917C1420.7 427.671 1418.85 454.731 1410.99 481.097C1403.12 507.463 1389.25 531.516 1369.36 553.256C1349.93 574.534 1324.49 590.029 1293.03 599.743L1437.35 726.022H1273.61L1165.37 630.966C1149.64 616.627 1130.91 609.457 1109.17 609.457H884.363V726.716H776.124V244.498H1221.57ZM1221.57 513.707C1240.53 513.707 1256.26 509.544 1268.75 501.218C1281.7 492.429 1291.18 481.559 1297.2 468.608C1303.67 455.656 1306.68 441.779 1306.22 426.977C1306.22 412.175 1302.98 398.299 1296.5 385.347C1290.49 372.395 1281.01 361.756 1268.06 353.43C1255.57 344.642 1240.07 340.247 1221.57 340.247H884.363V513.707H1221.57Z" fill="black"/>
<path d="M607.803 441.548C627.693 453.574 643.42 469.07 654.984 488.035C666.548 507 673.949 527.121 677.187 548.399C680.425 569.214 679.268 590.261 673.718 611.538C668.63 632.816 659.147 652.012 645.27 669.127C631.856 685.779 613.816 699.425 591.151 710.064C568.948 720.702 542.582 726.022 512.053 726.022H0V524.809C0 510.007 2.77536 496.13 8.32607 483.178C14.3393 469.764 22.2028 458.2 31.9166 448.486C41.6303 438.772 52.963 431.14 65.9147 425.59C78.8664 420.039 92.7431 417.263 107.545 417.263H478.055C489.157 417.263 497.251 413.332 502.34 405.468C507.89 397.142 510.666 388.122 510.666 378.408C510.666 368.695 507.89 359.906 502.34 352.043C496.789 343.717 488.694 339.553 478.055 339.553H11.7953V244.498H478.055C509.972 244.498 536.569 250.973 557.847 263.925C579.587 276.877 595.776 293.298 606.415 313.188C617.054 332.615 622.605 353.893 623.067 377.021C623.53 400.149 618.442 421.658 607.803 441.548ZM512.053 628.884C530.556 628.884 544.201 622.871 552.99 610.845C562.241 598.818 566.635 585.635 566.173 571.296C566.173 556.494 561.547 543.08 552.296 531.053C543.507 519.027 530.093 513.013 512.053 513.013H107.545V628.884H512.053Z" fill="black"/>
<path d="M4185 368L4143.33 468L4210 684.667L4276.67 468L4235 368" stroke="#FFB622" stroke-width="30" stroke-linecap="round" stroke-linejoin="round"/>
<path d="M4293.33 368C4298.51 368 4303.61 369.205 4308.24 371.519C4312.87 373.833 4316.89 377.193 4320 381.333L4370 448C4374.29 453.719 4376.62 460.666 4376.66 467.814C4376.7 474.963 4374.44 481.934 4370.22 487.7L4237.05 670.8C4233.96 675.091 4229.9 678.587 4225.19 680.998C4220.49 683.409 4215.28 684.666 4209.99 684.666C4204.7 684.666 4199.49 683.409 4194.79 680.998C4190.08 678.587 4186.02 675.091 4182.93 670.8L4049.77 487.7C4045.54 481.932 4043.29 474.96 4043.33 467.811C4043.37 460.663 4045.71 453.718 4050 448L4099.97 381.383C4103.07 377.23 4107.1 373.857 4111.73 371.534C4116.37 369.211 4121.48 368.001 4126.67 368H4293.33Z" stroke="#FFB622" stroke-width="30" stroke-linecap="round" stroke-linejoin="round"/>
<path d="M4043.33 468H4376.67" stroke="#FFB622" stroke-width="30" stroke-linecap="round" stroke-linejoin="round"/>
</svg>
