<svg width="4362" height="875" viewBox="0 0 4362 875" fill="none" xmlns="http://www.w3.org/2000/svg">
<path d="M4361.35 0H4205.56C4169.04 0 4139.84 26.7166 4139.84 26.7166L3387.67 728.686H3543.46C3582.4 728.686 3609.18 701.969 3609.18 701.969L3708.98 612.097L3942.66 845.274C3942.66 845.274 3971.87 874.423 4013.26 874.423H4166.61L3808.78 517.366L4361.35 0Z" fill="#0095C2"/>
<path d="M3694.38 354.625L3611.62 272.044C3611.62 272.044 3582.4 242.895 3541.02 242.895H3387.67L3592.14 446.929L3694.38 354.625Z" fill="#0095C2"/>
<path d="M3319.61 629.578V726.022H2888.04C2853.81 726.022 2821.66 720.009 2791.6 707.982C2761.53 695.493 2735.4 678.378 2713.19 656.638C2690.99 634.898 2673.41 609.457 2660.46 580.316C2647.51 550.712 2641.03 519.027 2641.03 485.26C2641.03 451.03 2647.51 419.345 2660.46 390.204C2673.41 361.063 2690.99 335.622 2713.19 313.881C2735.4 292.141 2761.53 275.258 2791.6 263.231C2821.66 250.742 2853.81 244.498 2888.04 244.498H3319.61V340.941H2888.04C2872.31 340.941 2857.28 343.717 2842.94 349.267C2828.6 354.355 2815.65 361.756 2804.09 371.47C2792.98 381.184 2783.27 392.979 2774.94 406.856C2767.08 420.27 2761.53 435.072 2758.29 451.262H3130.88V547.705H2767.31C2777.95 572.683 2793.91 592.573 2815.19 607.375C2836.93 622.177 2861.21 629.578 2888.04 629.578H3319.61Z" fill="black"/>
<path d="M2436.12 243.804H2543.67V726.022H2436.12V615.701L2126.67 365.226C2105.39 348.111 2081.34 339.554 2054.51 339.554H2022.59V726.022H1915.05V243.804H2089.2C2116.03 243.804 2140.08 252.361 2161.36 269.476L2436.12 492.198V243.804Z" fill="black"/>
<path d="M1817.09 245V341.444H1729.66V630.081H1817.09V726.524H1534V630.081H1622.12V341.444H1534V245H1817.09Z" fill="black"/>
<path d="M1221.57 244.498C1260.89 244.498 1294.19 251.898 1321.48 266.7C1349.23 281.502 1370.97 300.467 1386.7 323.595C1402.89 346.261 1412.84 371.701 1416.54 399.917C1420.7 427.671 1418.85 454.731 1410.99 481.097C1403.12 507.463 1389.25 531.516 1369.36 553.256C1349.93 574.534 1324.49 590.029 1293.03 599.743L1437.35 726.022H1273.61L1165.37 630.966C1149.64 616.627 1130.91 609.457 1109.17 609.457H884.362V726.716H776.123V244.498H1221.57ZM1221.57 513.707C1240.53 513.707 1256.26 509.544 1268.75 501.218C1281.7 492.429 1291.18 481.559 1297.2 468.608C1303.67 455.656 1306.68 441.779 1306.22 426.977C1306.22 412.175 1302.98 398.299 1296.5 385.347C1290.49 372.395 1281.01 361.756 1268.05 353.43C1255.57 344.642 1240.07 340.247 1221.57 340.247H884.362V513.707H1221.57Z" fill="black"/>
<path d="M607.803 441.548C627.693 453.574 643.42 469.07 654.984 488.035C666.548 507 673.949 527.121 677.187 548.399C680.425 569.214 679.268 590.261 673.718 611.538C668.63 632.816 659.147 652.012 645.27 669.127C631.856 685.779 613.816 699.425 591.151 710.064C568.948 720.702 542.582 726.022 512.053 726.022H0V524.809C0 510.007 2.77536 496.13 8.32607 483.178C14.3393 469.764 22.2028 458.2 31.9166 448.486C41.6303 438.772 52.963 431.14 65.9147 425.59C78.8664 420.039 92.7431 417.263 107.545 417.263H478.055C489.157 417.263 497.251 413.332 502.34 405.468C507.89 397.142 510.666 388.122 510.666 378.408C510.666 368.695 507.89 359.906 502.34 352.043C496.789 343.717 488.694 339.553 478.055 339.553H11.7953V244.498H478.055C509.972 244.498 536.569 250.973 557.847 263.925C579.587 276.877 595.776 293.298 606.415 313.188C617.054 332.615 622.605 353.893 623.067 377.021C623.53 400.149 618.442 421.658 607.803 441.548ZM512.053 628.884C530.556 628.884 544.201 622.871 552.99 610.845C562.241 598.818 566.635 585.635 566.173 571.296C566.173 556.494 561.547 543.08 552.296 531.053C543.507 519.027 530.093 513.013 512.053 513.013H107.545V628.884H512.053Z" fill="black"/>
</svg>
