<svg width="4362" height="875" viewBox="0 0 4362 875" fill="none" xmlns="http://www.w3.org/2000/svg">
<path d="M3319.61 628.578V725.022H2888.04C2853.81 725.022 2821.66 719.009 2791.6 706.982C2761.53 694.493 2735.4 677.378 2713.19 655.638C2690.99 633.898 2673.41 608.457 2660.46 579.316C2647.51 549.712 2641.03 518.027 2641.03 484.26C2641.03 450.03 2647.51 418.345 2660.46 389.204C2673.41 360.063 2690.99 334.622 2713.19 312.881C2735.4 291.141 2761.53 274.258 2791.6 262.231C2821.66 249.742 2853.81 243.498 2888.04 243.498H3319.61V339.941H2888.04C2872.31 339.941 2857.28 342.717 2842.94 348.267C2828.6 353.355 2815.65 360.756 2804.09 370.47C2792.98 380.184 2783.27 391.979 2774.94 405.856C2767.08 419.27 2761.53 434.072 2758.29 450.262H3130.88V546.705H2767.31C2777.95 571.683 2793.91 591.573 2815.19 606.375C2836.93 621.177 2861.21 628.578 2888.04 628.578H3319.61Z" fill="black"/>
<path d="M2436.12 242.804H2543.67V725.022H2436.12V614.701L2126.67 364.226C2105.39 347.111 2081.34 338.554 2054.51 338.554H2022.59V725.022H1915.05V242.804H2089.2C2116.03 242.804 2140.08 251.361 2161.36 268.476L2436.12 491.198V242.804Z" fill="black"/>
<path d="M1817.09 244V340.444H1729.66V629.081H1817.09V725.524H1534V629.081H1622.12V340.444H1534V244H1817.09Z" fill="black"/>
<path d="M1221.57 243.498C1260.89 243.498 1294.19 250.898 1321.48 265.7C1349.23 280.502 1370.97 299.467 1386.7 322.595C1402.89 345.261 1412.84 370.701 1416.54 398.917C1420.7 426.671 1418.85 453.731 1410.99 480.097C1403.12 506.463 1389.25 530.516 1369.36 552.256C1349.93 573.534 1324.49 589.029 1293.03 598.743L1437.35 725.022H1273.61L1165.37 629.966C1149.64 615.627 1130.91 608.457 1109.17 608.457H884.362V725.716H776.123V243.498H1221.57ZM1221.57 512.707C1240.53 512.707 1256.26 508.544 1268.75 500.218C1281.7 491.429 1291.18 480.559 1297.2 467.608C1303.67 454.656 1306.68 440.779 1306.22 425.977C1306.22 411.175 1302.98 397.299 1296.5 384.347C1290.49 371.395 1281.01 360.756 1268.05 352.43C1255.57 343.642 1240.07 339.247 1221.57 339.247H884.362V512.707H1221.57Z" fill="black"/>
<path d="M607.803 440.548C627.693 452.574 643.42 468.07 654.984 487.035C666.548 506 673.949 526.121 677.187 547.399C680.425 568.214 679.268 589.261 673.718 610.538C668.63 631.816 659.147 651.012 645.27 668.127C631.856 684.779 613.816 698.425 591.151 709.064C568.948 719.702 542.582 725.022 512.053 725.022H0V523.809C0 509.007 2.77536 495.13 8.32607 482.178C14.3393 468.764 22.2028 457.2 31.9166 447.486C41.6303 437.772 52.963 430.14 65.9147 424.59C78.8664 419.039 92.7431 416.263 107.545 416.263H478.055C489.157 416.263 497.251 412.332 502.34 404.468C507.89 396.142 510.666 387.122 510.666 377.408C510.666 367.695 507.89 358.906 502.34 351.043C496.789 342.717 488.694 338.553 478.055 338.553H11.7953V243.498H478.055C509.972 243.498 536.569 249.973 557.847 262.925C579.587 275.877 595.776 292.298 606.415 312.188C617.054 331.615 622.605 352.893 623.067 376.021C623.53 399.149 618.442 420.658 607.803 440.548ZM512.053 627.884C530.556 627.884 544.201 621.871 552.99 609.845C562.241 597.818 566.635 584.635 566.173 570.296C566.173 555.494 561.547 542.08 552.296 530.053C543.507 518.027 530.093 512.013 512.053 512.013H107.545V627.884H512.053Z" fill="black"/>
<path d="M4361.68 0L3809.11 517.366L4166.94 874.423H4013.59C3972.27 874.423 3943.09 845.365 3943 845.274L3709.31 612.097L3609.51 701.969C3609.51 701.969 3582.74 728.686 3543.79 728.686H3388L4140.17 26.7168C4140.17 26.7168 4169.37 0 4205.89 0H4361.68ZM3541.35 242.896C3582.65 242.896 3611.83 271.924 3611.95 272.043L3694.71 354.625L3592.47 446.929L3388 242.896H3541.35Z" fill="url(#paint0_linear_15_3)"/>
<defs>
<linearGradient id="paint0_linear_15_3" x1="3583.5" y1="724" x2="4344" y2="12.4999" gradientUnits="userSpaceOnUse">
<stop stop-color="#FFB622"/>
<stop offset="0.327507" stop-color="#FF7373"/>
<stop offset="0.643388" stop-color="#00D4FF"/>
<stop offset="0.947115" stop-color="#01B87A"/>
</linearGradient>
</defs>
</svg>
