<svg width="4410" height="1122" viewBox="0 0 4410 1122" fill="none" xmlns="http://www.w3.org/2000/svg">
<path d="M303.45 795.1H356.65L263.55 1003.7C258.883 1014.2 251.767 1022.6 242.2 1028.9C232.633 1034.97 222.133 1038 210.7 1038H159.95C148.517 1038 138.017 1034.97 128.45 1028.9C118.883 1022.6 111.767 1014.2 107.1 1003.7L14 795.1H67.2L150.15 980.95C151.317 983.517 153.067 985.617 155.4 987.25C157.967 988.65 160.65 989.35 163.45 989.35H207.2C213.733 989.35 218.167 986.55 220.5 980.95L303.45 795.1ZM523.586 795.1C535.253 795.1 545.87 798.25 555.436 804.55C565.003 810.617 572.12 818.9 576.786 829.4L669.536 1038H616.336L594.986 989.35H402.136L380.436 1038H327.236L355.236 975.35C359.903 964.85 367.02 956.567 376.586 950.5C386.153 944.2 396.653 941.05 408.086 941.05H573.286L533.736 852.15C532.57 849.583 530.703 847.6 528.136 846.2C525.803 844.567 523.236 843.75 520.436 843.75H476.336C473.536 843.75 470.97 844.567 468.636 846.2C466.303 847.6 464.553 849.583 463.386 852.15L439.586 905.35H386.386L420.336 829.4C425.003 818.9 432.12 810.617 441.686 804.55C451.253 798.25 461.753 795.1 473.186 795.1H523.586ZM781.203 1038C771.403 1038 761.603 1036.25 751.803 1032.75C742.003 1029.25 733.019 1024.12 724.853 1017.35C716.919 1010.35 710.386 1001.6 705.253 991.1C700.119 980.6 697.553 968.35 697.553 954.35V795.1H752.153V953.65C752.153 958.317 752.969 962.867 754.603 967.3C756.236 971.5 758.336 975.233 760.903 978.5C763.703 981.767 766.853 984.45 770.353 986.55C773.853 988.417 777.469 989.35 781.203 989.35H929.953V1038H781.203ZM1204.55 793.7C1221.82 793.7 1238.04 796.85 1253.2 803.15C1268.37 809.217 1281.55 817.733 1292.75 828.7C1303.95 839.433 1312.82 852.267 1319.35 867.2C1325.89 881.9 1329.15 897.883 1329.15 915.15C1329.15 932.183 1325.89 948.167 1319.35 963.1C1312.82 977.8 1303.95 990.633 1292.75 1001.6C1281.55 1012.57 1268.37 1021.2 1253.2 1027.5C1238.04 1033.57 1221.82 1036.6 1204.55 1036.6H1082.75C1065.49 1036.6 1049.27 1033.57 1034.1 1027.5C1018.94 1021.2 1005.75 1012.57 994.552 1001.6C983.352 990.633 974.486 977.8 967.952 963.1C961.419 948.167 958.152 932.183 958.152 915.15C958.152 897.883 961.419 881.9 967.952 867.2C974.486 852.267 983.352 839.433 994.552 828.7C1005.75 817.733 1018.94 809.217 1034.1 803.15C1049.27 796.85 1065.49 793.7 1082.75 793.7H1204.55ZM1204.55 987.95C1213.89 987.95 1222.64 986.083 1230.8 982.35C1238.97 978.617 1246.09 973.6 1252.15 967.3C1258.22 960.767 1263 953.067 1266.5 944.2C1270 935.333 1271.75 925.65 1271.75 915.15C1271.75 904.65 1270 894.967 1266.5 886.1C1263 877 1258.22 869.3 1252.15 863C1246.09 856.467 1238.97 851.333 1230.8 847.6C1222.64 843.867 1213.89 842 1204.55 842H1082.75C1073.42 842 1064.67 843.867 1056.5 847.6C1048.34 851.333 1041.22 856.467 1035.15 863C1029.09 869.3 1024.3 877 1020.8 886.1C1017.3 894.967 1015.55 904.65 1015.55 915.15C1015.55 925.65 1017.3 935.333 1020.8 944.2C1024.3 953.067 1029.09 960.767 1035.15 967.3C1041.22 973.6 1048.34 978.617 1056.5 982.35C1064.67 986.083 1073.42 987.95 1082.75 987.95H1204.55ZM1612.53 794.75C1632.83 794.75 1649.98 798.717 1663.98 806.65C1678.21 814.35 1689.18 824.267 1696.88 836.4C1704.81 848.3 1709.6 861.483 1711.23 875.95C1712.86 890.417 1711.35 904.417 1706.68 917.95C1702.01 931.25 1694.2 943.267 1683.23 954C1672.26 964.5 1658.26 971.733 1641.23 975.7L1711.58 1037.65H1628.98L1574.38 989.7C1566.45 982.467 1557 978.85 1546.03 978.85H1432.28V1038H1378.03V984.8C1378.03 977.1 1379.43 969.983 1382.23 963.45C1385.03 956.917 1388.88 951.2 1393.78 946.3C1398.68 941.4 1404.4 937.55 1410.93 934.75C1417.7 931.95 1424.81 930.55 1432.28 930.55H1612.53C1622.1 930.55 1630.03 928.45 1636.33 924.25C1642.63 919.817 1647.3 914.333 1650.33 907.8C1653.6 901.267 1655.23 894.267 1655.23 886.8C1655.23 879.333 1653.6 872.333 1650.33 865.8C1647.06 859.267 1642.28 853.9 1635.98 849.7C1629.68 845.267 1621.86 843.05 1612.53 843.05H1382.93V794.75H1612.53Z" fill="#01B87A"/>
<path d="M4361.34 0H4205.55C4169.04 0 4139.84 26.7166 4139.84 26.7166L3387.67 728.686H3543.46C3582.4 728.686 3609.18 701.969 3609.18 701.969L3708.98 612.097L3942.66 845.274C3942.66 845.274 3971.87 874.423 4013.26 874.423H4166.61L3808.78 517.366L4361.34 0Z" fill="black"/>
<path d="M3694.37 354.625L3611.61 272.043C3611.61 272.043 3582.4 242.895 3541.02 242.895H3387.67L3592.14 446.929L3694.37 354.625Z" fill="black"/>
<path d="M3319.61 629.578V726.022H2888.04C2853.81 726.022 2821.66 720.009 2791.6 707.982C2761.53 695.493 2735.4 678.378 2713.19 656.638C2690.99 634.898 2673.41 609.457 2660.46 580.316C2647.51 550.712 2641.03 519.027 2641.03 485.26C2641.03 451.03 2647.51 419.345 2660.46 390.204C2673.41 361.063 2690.99 335.622 2713.19 313.881C2735.4 292.141 2761.53 275.258 2791.6 263.231C2821.66 250.742 2853.81 244.498 2888.04 244.498H3319.61V340.941H2888.04C2872.31 340.941 2857.28 343.717 2842.94 349.267C2828.6 354.355 2815.65 361.756 2804.09 371.47C2792.98 381.184 2783.27 392.979 2774.94 406.856C2767.08 420.27 2761.53 435.072 2758.29 451.262H3130.88V547.705H2767.31C2777.95 572.683 2793.91 592.573 2815.19 607.375C2836.93 622.177 2861.21 629.578 2888.04 629.578H3319.61Z" fill="black"/>
<path d="M2436.12 243.804H2543.67V726.022H2436.12V615.701L2126.67 365.226C2105.39 348.111 2081.34 339.554 2054.51 339.554H2022.59V726.022H1915.05V243.804H2089.2C2116.03 243.804 2140.08 252.361 2161.36 269.476L2436.12 492.198V243.804Z" fill="black"/>
<path d="M1817.09 245V341.444H1729.66V630.081H1817.09V726.524H1534V630.081H1622.12V341.444H1534V245H1817.09Z" fill="black"/>
<path d="M1221.57 244.498C1260.89 244.498 1294.19 251.898 1321.48 266.7C1349.23 281.502 1370.97 300.467 1386.7 323.595C1402.89 346.261 1412.84 371.701 1416.54 399.917C1420.7 427.671 1418.85 454.731 1410.99 481.097C1403.12 507.463 1389.25 531.516 1369.36 553.256C1349.93 574.534 1324.49 590.029 1293.03 599.743L1437.35 726.022H1273.61L1165.37 630.966C1149.64 616.627 1130.91 609.457 1109.17 609.457H884.362V726.716H776.123V244.498H1221.57ZM1221.57 513.707C1240.53 513.707 1256.26 509.544 1268.75 501.218C1281.7 492.429 1291.18 481.559 1297.2 468.608C1303.67 455.656 1306.68 441.779 1306.22 426.977C1306.22 412.175 1302.98 398.299 1296.5 385.347C1290.49 372.395 1281.01 361.756 1268.05 353.43C1255.57 344.642 1240.07 340.247 1221.57 340.247H884.362V513.707H1221.57Z" fill="black"/>
<path d="M607.803 441.548C627.693 453.574 643.42 469.07 654.984 488.035C666.548 507 673.949 527.121 677.187 548.399C680.425 569.214 679.268 590.261 673.718 611.538C668.63 632.816 659.147 652.012 645.27 669.127C631.856 685.779 613.816 699.425 591.151 710.064C568.948 720.702 542.582 726.022 512.053 726.022H0V524.809C0 510.007 2.77536 496.13 8.32607 483.178C14.3393 469.764 22.2028 458.2 31.9166 448.486C41.6303 438.772 52.963 431.14 65.9147 425.59C78.8664 420.039 92.7431 417.263 107.545 417.263H478.055C489.157 417.263 497.251 413.332 502.34 405.468C507.89 397.142 510.666 388.122 510.666 378.408C510.666 368.695 507.89 359.906 502.34 352.043C496.789 343.717 488.694 339.553 478.055 339.553H11.7953V244.498H478.055C509.972 244.498 536.569 250.973 557.847 263.925C579.587 276.877 595.776 293.298 606.415 313.188C617.054 332.615 622.605 353.893 623.067 377.021C623.53 400.149 618.442 421.658 607.803 441.548ZM512.053 628.884C530.556 628.884 544.201 622.871 552.99 610.845C562.241 598.818 566.635 585.635 566.173 571.296C566.173 556.494 561.547 543.08 552.296 531.053C543.507 519.027 530.093 513.013 512.053 513.013H107.545V628.884H512.053Z" fill="black"/>
<path d="M4126.67 634.667H4090.25C4084.99 634.682 4079.82 633.338 4075.24 630.765C4070.65 628.193 4066.81 624.479 4064.08 619.983C4061.47 615.469 4060.08 610.345 4060.07 605.126C4060.06 599.907 4061.42 594.777 4064.02 590.25L4129.93 476.333" stroke="#01B87A" stroke-width="30" stroke-linecap="round" stroke-linejoin="round"/>
<path d="M4193.33 634.667H4330.05C4335.28 634.626 4340.42 633.24 4344.96 630.643C4349.5 628.045 4353.3 624.322 4355.98 619.833C4358.56 615.331 4359.92 610.231 4359.92 605.042C4359.92 599.852 4358.56 594.752 4355.98 590.25L4335.55 554.917" stroke="#01B87A" stroke-width="30" stroke-linecap="round" stroke-linejoin="round"/>
<path d="M4243.33 584.667L4193.33 634.667L4243.33 684.667" stroke="#01B87A" stroke-width="30" stroke-linecap="round" stroke-linejoin="round"/>
<path d="M4148.22 544.6L4129.93 476.333L4061.67 494.633" stroke="#01B87A" stroke-width="30" stroke-linecap="round" stroke-linejoin="round"/>
<path d="M4165.73 414.85L4183.95 383.317C4186.57 378.757 4190.32 374.95 4194.84 372.266C4199.36 369.583 4204.49 368.113 4209.75 368C4214.97 367.99 4220.09 369.353 4224.61 371.95C4229.14 374.548 4232.9 378.29 4235.52 382.8L4301.23 496.85" stroke="#01B87A" stroke-width="30" stroke-linecap="round" stroke-linejoin="round"/>
<path d="M4232.97 478.55L4301.23 496.85L4319.52 428.583" stroke="#01B87A" stroke-width="30" stroke-linecap="round" stroke-linejoin="round"/>
</svg>
